<svg width="30" height="30" viewBox="0 0 30 30" fill="none" xmlns="http://www.w3.org/2000/svg">
<g clip-path="url(#clip0_115_461)">
<path d="M34.7634 7H4.99237C4.72917 7 4.47676 7.10536 4.29066 7.29289C4.10455 7.48043 4 7.73478 4 8V9.67C4.00019 9.90619 4.04675 10.14 4.13702 10.358C4.22729 10.5759 4.35947 10.7737 4.52595 10.94L15.9084 22.58V32.78L17.8931 33.54V22C17.8939 21.8684 17.8689 21.7379 17.8195 21.6161C17.7701 21.4943 17.6973 21.3834 17.6053 21.29L5.98473 9.59V9H33.771V9.61L22.1901 21.29C22.0909 21.3801 22.0108 21.4894 21.9545 21.6114C21.8982 21.7334 21.867 21.8655 21.8626 22V35.21L23.8473 36V22.5L35.2298 11C35.3989 10.8295 35.5326 10.6267 35.6229 10.4035C35.7132 10.1802 35.7584 9.94106 35.7557 9.7V8C35.7557 7.73478 35.6512 7.48043 35.4651 7.29289C35.279 7.10536 35.0265 7 34.7634 7Z" fill="white"/>
</g>
<defs>
<clipPath id="clip0_115_461">
<rect width="30" height="30" fill="white"/>
</clipPath>
</defs>
</svg>
